<svg width="64" height="64" viewBox="0 0 64 64" fill="none" xmlns="http://www.w3.org/2000/svg">
<path fill-rule="evenodd" clip-rule="evenodd" d="M40.1073 10.8035C42.8006 11.8755 43.6246 15.6088 44.726 16.8088C45.8273 18.0088 47.4033 18.4168 48.2753 18.4168C52.91 18.4168 56.6673 22.1741 56.6673 26.8061V42.2595C56.6673 48.4728 51.6273 53.5128 45.414 53.5128H18.5873C12.3713 53.5128 7.33398 48.4728 7.33398 42.2595V26.8061C7.33398 22.1741 11.0913 18.4168 15.726 18.4168C16.5953 18.4168 18.1713 18.0088 19.2753 16.8088C20.3767 15.6088 21.198 11.8755 23.8913 10.8035C26.5873 9.73145 37.414 9.73145 40.1073 10.8035Z" stroke="#183B56" stroke-width="1.5" stroke-linecap="round" stroke-linejoin="round"/>
<path d="M46.6548 25.3333H46.6788" stroke="#183B56" stroke-width="2" stroke-linecap="round" stroke-linejoin="round"/>
<path fill-rule="evenodd" clip-rule="evenodd" d="M40.4771 35.008C40.4771 30.3253 36.6825 26.5306 31.9998 26.5306C27.3171 26.5306 23.5225 30.3253 23.5225 35.008C23.5225 39.6906 27.3171 43.4853 31.9998 43.4853C36.6825 43.4853 40.4771 39.6906 40.4771 35.008Z" stroke="#183B56" stroke-width="1.5" stroke-linecap="round" stroke-linejoin="round"/>
</svg>
