<svg width="96" height="96" viewBox="0 0 96 96" fill="none" xmlns="http://www.w3.org/2000/svg">
<path d="M48 78C69.375 78 87 60.5625 87 39C87 17.625 69.375 0 48 0C26.4375 0 9 17.625 9 39C9 60.5625 26.4375 78 48 78ZM43.6875 18.375V15.1875C43.6875 13.5 45.1875 12 46.875 12H48.9375C50.625 12 52.125 13.5 52.125 15.1875V18.375C54.9375 18.5625 57.75 19.5 60.1875 21.1875C61.125 22.125 61.3125 23.625 60.375 24.5625L57.375 27.375C56.625 28.125 55.5 28.125 54.75 27.5625C53.625 27 52.5 26.625 51.375 26.625H44.0625C42.375 26.625 41.0625 28.125 41.0625 30C41.0625 31.5 42 33 43.3125 33.375L54.9375 36.9375C59.8125 38.25 63.1875 42.9375 63.1875 48.1875C63.1875 54.5625 58.125 59.625 52.125 59.8125V63C52.125 64.6875 50.625 66 48.9375 66H46.875C45.1875 66 43.6875 64.6875 43.6875 63V59.8125C40.875 59.625 38.0625 58.6875 35.625 56.8125C34.6875 56.0625 34.5 54.5625 35.4375 53.625L38.4375 50.8125C39.1875 50.0625 40.3125 50.0625 41.0625 50.625C42.1875 51.1875 43.3125 51.5625 44.4375 51.5625H51.75C53.4375 51.5625 54.75 50.0625 54.75 48.1875C54.75 46.5 53.8125 45.1875 52.5 44.8125L40.875 41.25C36 39.9375 32.625 35.25 32.625 30C32.625 23.625 37.6875 18.5625 43.6875 18.375ZM90 66H83.8125C80.0625 70.875 75.375 75 70.125 78H82.125C83.0625 78 83.8125 78.75 83.8125 79.5V82.5C83.8125 83.4375 83.0625 84 82.125 84H13.6875C12.75 84 12 83.4375 12 82.5V79.5C12 78.75 12.75 78 13.6875 78H25.6875C20.4375 75 15.75 70.875 12 66H6C2.625 66 0 68.8125 0 72V90C0 93.375 2.625 96 6 96H90C93.1875 96 96 93.375 96 90V72C96 68.8125 93.1875 66 90 66Z" fill="#333333"/>
</svg>
