<svg width="48" height="48" viewBox="0 0 48 48" fill="none" xmlns="http://www.w3.org/2000/svg">
<path d="M24 39C34.6875 39 43.5 30.2812 43.5 19.5C43.5 8.8125 34.6875 0 24 0C13.2188 0 4.5 8.8125 4.5 19.5C4.5 30.2812 13.2188 39 24 39ZM21.8438 9.1875V7.59375C21.8438 6.75 22.5938 6 23.4375 6H24.4688C25.3125 6 26.0625 6.75 26.0625 7.59375V9.1875C27.4688 9.28125 28.875 9.75 30.0938 10.5938C30.5625 11.0625 30.6562 11.8125 30.1875 12.2812L28.6875 13.6875C28.3125 14.0625 27.75 14.0625 27.375 13.7812C26.8125 13.5 26.25 13.3125 25.6875 13.3125H22.0312C21.1875 13.3125 20.5312 14.0625 20.5312 15C20.5312 15.75 21 16.5 21.6562 16.6875L27.4688 18.4688C29.9062 19.125 31.5938 21.4688 31.5938 24.0938C31.5938 27.2812 29.0625 29.8125 26.0625 29.9062V31.5C26.0625 32.3438 25.3125 33 24.4688 33H23.4375C22.5938 33 21.8438 32.3438 21.8438 31.5V29.9062C20.4375 29.8125 19.0312 29.3438 17.8125 28.4062C17.3438 28.0312 17.25 27.2812 17.7188 26.8125L19.2188 25.4062C19.5938 25.0312 20.1562 25.0312 20.5312 25.3125C21.0938 25.5938 21.6562 25.7812 22.2188 25.7812H25.875C26.7188 25.7812 27.375 25.0312 27.375 24.0938C27.375 23.25 26.9062 22.5938 26.25 22.4062L20.4375 20.625C18 19.9688 16.3125 17.625 16.3125 15C16.3125 11.8125 18.8438 9.28125 21.8438 9.1875ZM45 33H41.9062C40.0312 35.4375 37.6875 37.5 35.0625 39H41.0625C41.5312 39 41.9062 39.375 41.9062 39.75V41.25C41.9062 41.7188 41.5312 42 41.0625 42H6.84375C6.375 42 6 41.7188 6 41.25V39.75C6 39.375 6.375 39 6.84375 39H12.8438C10.2188 37.5 7.875 35.4375 6 33H3C1.3125 33 0 34.4062 0 36V45C0 46.6875 1.3125 48 3 48H45C46.5938 48 48 46.6875 48 45V36C48 34.4062 46.5938 33 45 33Z" fill="#FBBF24"/>
</svg>
