<svg width="28" height="29" viewBox="0 0 28 29" fill="none" xmlns="http://www.w3.org/2000/svg">
<path d="M14 23.25C20.2344 23.25 25.375 18.1641 25.375 11.875C25.375 5.64062 20.2344 0.5 14 0.5C7.71094 0.5 2.625 5.64062 2.625 11.875C2.625 18.1641 7.71094 23.25 14 23.25ZM12.7422 5.85938V4.92969C12.7422 4.4375 13.1797 4 13.6719 4H14.2734C14.7656 4 15.2031 4.4375 15.2031 4.92969V5.85938C16.0234 5.91406 16.8438 6.1875 17.5547 6.67969C17.8281 6.95312 17.8828 7.39062 17.6094 7.66406L16.7344 8.48438C16.5156 8.70312 16.1875 8.70312 15.9688 8.53906C15.6406 8.375 15.3125 8.26562 14.9844 8.26562H12.8516C12.3594 8.26562 11.9766 8.70312 11.9766 9.25C11.9766 9.6875 12.25 10.125 12.6328 10.2344L16.0234 11.2734C17.4453 11.6562 18.4297 13.0234 18.4297 14.5547C18.4297 16.4141 16.9531 17.8906 15.2031 17.9453V18.875C15.2031 19.3672 14.7656 19.75 14.2734 19.75H13.6719C13.1797 19.75 12.7422 19.3672 12.7422 18.875V17.9453C11.9219 17.8906 11.1016 17.6172 10.3906 17.0703C10.1172 16.8516 10.0625 16.4141 10.3359 16.1406L11.2109 15.3203C11.4297 15.1016 11.7578 15.1016 11.9766 15.2656C12.3047 15.4297 12.6328 15.5391 12.9609 15.5391H15.0938C15.5859 15.5391 15.9688 15.1016 15.9688 14.5547C15.9688 14.0625 15.6953 13.6797 15.3125 13.5703L11.9219 12.5312C10.5 12.1484 9.51562 10.7812 9.51562 9.25C9.51562 7.39062 10.9922 5.91406 12.7422 5.85938ZM26.25 19.75H24.4453C23.3516 21.1719 21.9844 22.375 20.4531 23.25H23.9531C24.2266 23.25 24.4453 23.4688 24.4453 23.6875V24.5625C24.4453 24.8359 24.2266 25 23.9531 25H3.99219C3.71875 25 3.5 24.8359 3.5 24.5625V23.6875C3.5 23.4688 3.71875 23.25 3.99219 23.25H7.49219C5.96094 22.375 4.59375 21.1719 3.5 19.75H1.75C0.765625 19.75 0 20.5703 0 21.5V26.75C0 27.7344 0.765625 28.5 1.75 28.5H26.25C27.1797 28.5 28 27.7344 28 26.75V21.5C28 20.5703 27.1797 19.75 26.25 19.75Z" fill="url(#paint0_linear)"/>
<defs>
<linearGradient id="paint0_linear" x1="14" y1="-2" x2="14" y2="30" gradientUnits="userSpaceOnUse">
<stop stop-color="#9C60FF"/>
<stop offset="1" stop-color="#5600E5"/>
</linearGradient>
</defs>
</svg>
