<svg width="49" height="49" viewBox="0 0 49 49" fill="none" xmlns="http://www.w3.org/2000/svg">
<path d="M48.25 18.75L46.1875 16.5938C45.25 15.75 43.8438 15.75 43 16.5938L42.4375 17.1562L31.8438 6.5625L32.4062 6C33.25 5.15625 33.25 3.75 32.4062 2.8125L30.25 0.75C29.4062 -0.1875 28 -0.1875 27.0625 0.75L15.4375 12.375C14.5 13.2188 14.5 14.7188 15.4375 15.5625L17.5 17.7188C18.4375 18.5625 19.8438 18.5625 20.6875 17.7188L21.25 17.1562L25 20.8125L17.4062 28.5L16.8438 27.9375C15.625 26.7188 13.75 26.7188 12.625 27.9375L1.84375 38.7188C0.625 39.8438 0.625 41.7188 1.84375 42.9375L6.0625 47.1562C7.28125 48.375 9.15625 48.375 10.2812 47.1562L21.0625 36.375C22.2812 35.25 22.2812 33.375 21.0625 32.1562L20.5 31.5938L28.1875 24L31.8438 27.75L31.2812 28.3125C30.4375 29.1562 30.4375 30.5625 31.2812 31.5L33.4375 33.5625C34.2812 34.5 35.7812 34.5 36.625 33.5625L48.25 21.9375C49.1875 21 49.1875 19.5938 48.25 18.75Z" fill="#333333"/>
</svg>
