<svg width="27" height="21" viewBox="0 0 27 21" fill="none" xmlns="http://www.w3.org/2000/svg">
<path d="M13.0566 5.86631L4.77305 12.7093V20.0475C4.77305 20.4526 5.08818 20.7678 5.49336 20.7678H10.5355C10.8957 20.7678 11.2108 20.4526 11.2108 20.0475V15.7256C11.2108 15.3654 11.571 15.0053 11.9312 15.0053H14.8124C15.2176 15.0053 15.5327 15.3654 15.5327 15.7256V20.0475C15.5327 20.4526 15.8929 20.7678 16.253 20.7678H21.3402C21.7004 20.7678 22.0605 20.4526 22.0605 20.0475V12.6643L13.7319 5.86631C13.6419 5.77627 13.5068 5.73125 13.4168 5.73125C13.2817 5.73125 13.1467 5.77627 13.0566 5.86631ZM26.1573 10.5033L22.4207 7.39697V1.18428C22.4207 0.86914 22.1506 0.644042 21.8805 0.644042H19.3594C19.0442 0.644042 18.8191 0.86914 18.8191 1.18428V4.42568L14.7674 1.09424C14.4522 0.82412 13.822 0.644042 13.3718 0.644042C12.9666 0.644042 12.3363 0.82412 12.0212 1.09424L0.63125 10.5033C0.496191 10.5934 0.406152 10.7734 0.406152 10.9085C0.406152 11.0436 0.496191 11.1786 0.541211 11.2687L1.71172 12.6643C1.80176 12.7543 1.98184 12.8443 2.11689 12.8443C2.20693 12.8443 2.38701 12.7993 2.47705 12.7093L13.0566 4.02051C13.1467 3.93047 13.2817 3.88545 13.4168 3.88545C13.5068 3.88545 13.6419 3.93047 13.7319 4.02051L24.3115 12.7093C24.4016 12.7993 24.5816 12.8443 24.6717 12.8443C24.8067 12.8443 24.9868 12.7543 25.0769 12.6643L26.2474 11.2687C26.2924 11.1786 26.3824 11.0436 26.3824 10.9085C26.3824 10.7734 26.2924 10.5934 26.1573 10.5033Z" fill="#333333"/>
</svg>
