<svg width="109" height="84" viewBox="0 0 109 84" fill="none" xmlns="http://www.w3.org/2000/svg">
<path d="M90.5 72H27.5C19.0625 72 12.5 65.4375 12.5 57V18H9.5C4.4375 18 0.5 22.125 0.5 27V75C0.5 80.0625 4.4375 84 9.5 84H81.5C86.375 84 90.5 80.0625 90.5 75V72ZM108.5 57V9C108.5 4.125 104.375 0 99.5 0H27.5C22.4375 0 18.5 4.125 18.5 9V57C18.5 62.0625 22.4375 66 27.5 66H99.5C104.375 66 108.5 62.0625 108.5 57ZM48.5 18C48.5 23.0625 44.375 27 39.5 27C34.4375 27 30.5 23.0625 30.5 18C30.5 13.125 34.4375 9 39.5 9C44.375 9 48.5 13.125 48.5 18ZM30.5 45L40.8125 34.6875C41.75 33.75 43.0625 33.75 44 34.6875L51.5 42L76.8125 16.6875C77.75 15.75 79.0625 15.75 80 16.6875L96.5 33V54H30.5V45Z" fill="#333333"/>
</svg>
