<svg width="21" height="24" viewBox="0 0 21 24" fill="none" xmlns="http://www.w3.org/2000/svg">
<path d="M13.9219 11.4375C13.9219 10.6875 13.3594 10.0781 12.7031 10.0781C12 10.0781 11.4375 10.6875 11.4375 11.4375C11.4375 12.1406 12 12.75 12.7031 12.75C13.3594 12.75 13.9219 12.1406 13.9219 11.4375ZM8.29688 10.0781C7.64062 10.0781 7.07812 10.6875 7.07812 11.4375C7.07812 12.1406 7.64062 12.75 8.29688 12.75C9 12.75 9.51562 12.1406 9.51562 11.4375C9.5625 10.6875 9 10.0781 8.29688 10.0781ZM21 2.48438C21 1.125 19.875 0 18.5156 0H2.4375C1.07812 0 0 1.125 0 2.48438V18.7031C0 20.1094 1.07812 21.1875 2.4375 21.1875H16.0312L15.4219 18.9844C18.9375 22.2188 17.9531 21.375 21 24V2.48438ZM17.5781 13.875C17.5781 13.875 16.5469 15.6094 13.875 15.7031C13.875 15.7031 13.4531 15.1875 13.0781 14.7188C14.6719 14.2969 15.2812 13.3125 15.2812 13.3125C14.7656 13.6406 14.2969 13.8281 13.875 14.0156C11.2969 15.0938 8.4375 14.7188 6.375 13.5938C6.375 13.5469 6.09375 13.4062 5.90625 13.2656C5.90625 13.2656 6.46875 14.25 8.01562 14.7188C7.64062 15.1406 7.21875 15.7031 7.21875 15.7031C4.54688 15.6094 3.5625 13.875 3.5625 13.875C3.5625 9.98438 5.25 6.89062 5.25 6.89062C6.98438 5.57812 8.625 5.625 8.625 5.625L8.76562 5.76562C6.60938 6.375 5.625 7.3125 5.625 7.3125C5.625 7.3125 5.85938 7.17188 6.32812 6.98438C9.09375 5.76562 12.4219 5.76562 15.2812 7.3125C15.2812 7.3125 14.3438 6.42188 12.2812 5.8125L12.4688 5.625C12.4688 5.625 14.1094 5.57812 15.8438 6.89062C15.8438 6.89062 17.5781 9.98438 17.5781 13.875Z" fill="white"/>
</svg>
