<svg width="24" height="18" viewBox="0 0 24 18" fill="none" xmlns="http://www.w3.org/2000/svg">
<path d="M23.5312 5.95312C22.4531 6.79688 21.0938 7.82812 16.3125 11.2969C15.375 12 13.6406 13.5469 12 13.5469C10.3125 13.5469 8.625 12 7.64062 11.2969C2.85938 7.82812 1.5 6.79688 0.421875 5.95312C0.234375 5.8125 0 5.95312 0 6.1875V15.75C0 17.0156 0.984375 18 2.25 18H21.75C22.9688 18 24 17.0156 24 15.75V6.1875C24 5.95312 23.7188 5.8125 23.5312 5.95312ZM12 12C13.0781 12.0469 14.625 10.6406 15.4219 10.0781C21.6562 5.57812 22.125 5.15625 23.5312 4.03125C23.8125 3.84375 24 3.51562 24 3.14062V2.25C24 1.03125 22.9688 0 21.75 0H2.25C0.984375 0 0 1.03125 0 2.25V3.14062C0 3.51562 0.140625 3.84375 0.421875 4.03125C1.82812 5.15625 2.29688 5.57812 8.53125 10.0781C9.32812 10.6406 10.875 12.0469 12 12Z" fill="white"/>
</svg>
