<svg width="21" height="22" viewBox="0 0 21 22" fill="none" xmlns="http://www.w3.org/2000/svg">
<path d="M21 1.67188C21 1.0625 20.4375 0.5 19.8281 0.5H1.125C0.515625 0.5 0 1.0625 0 1.67188V20.375C0 20.9844 0.515625 21.5 1.125 21.5H11.2031V13.3906H8.4375V10.2031H11.2031V7.85938C11.2031 5.1875 12.8438 3.6875 15.2812 3.6875C16.4062 3.6875 17.4375 3.78125 17.7188 3.82812V6.64062H16.0312C14.7188 6.64062 14.4844 7.29688 14.4844 8.1875V10.2031H17.625L17.2031 13.3906H14.4844V21.5H19.8281C20.4375 21.5 21 20.9844 21 20.375V1.67188Z" fill="white"/>
</svg>
