<svg width="25" height="24" viewBox="0 0 25 24" fill="none" xmlns="http://www.w3.org/2000/svg">
<path d="M24.1094 1.17188L19.2344 0.046875C18.7188 -0.09375 18.1562 0.1875 17.9219 0.703125L15.6719 5.95312C15.4844 6.42188 15.625 6.9375 16 7.26562L18.8594 9.60938C17.1719 13.1719 14.2188 16.1719 10.5625 17.9062L8.21875 15.0469C7.89062 14.6719 7.375 14.5312 6.90625 14.7188L1.65625 16.9688C1.14062 17.2031 0.90625 17.7656 1 18.2812L2.125 23.1562C2.26562 23.6719 2.6875 24 3.25 24C15.25 24 25 14.2969 25 2.25C25 1.73438 24.625 1.3125 24.1094 1.17188Z" fill="white"/>
</svg>
