<svg width="24" height="24" viewBox="0 0 24 24" fill="none" xmlns="http://www.w3.org/2000/svg">
<path d="M11.625 0.375C5.20312 0.375 0 5.57812 0 12C0 18.4219 5.20312 23.625 11.625 23.625C18.0469 23.625 23.25 18.4219 23.25 12C23.25 5.57812 18.0469 0.375 11.625 0.375ZM17.2969 8.34375L15.4219 17.3438C15.2812 18 14.9062 18.1406 14.3438 17.8594L11.4375 15.7031L10.0312 17.0625C9.89062 17.2031 9.75 17.3438 9.46875 17.3438L9.65625 14.3906L15.0469 9.51562C15.2812 9.32812 15 9.1875 14.6719 9.375L8.01562 13.5938L5.15625 12.7031C4.54688 12.5156 4.54688 12.0469 5.29688 11.7656L16.5 7.45312C17.0156 7.26562 17.4844 7.59375 17.2969 8.34375Z" fill="white"/>
</svg>
